<?xml version="1.0" encoding="UTF-8" standalone="no"?>
<!DOCTYPE svg PUBLIC "-//W3C//DTD SVG 1.1//EN" "http://www.w3.org/Graphics/SVG/1.1/DTD/svg11.dtd">
<svg width="100%" height="100%" viewBox="0 0 466 122" version="1.1" xmlns="http://www.w3.org/2000/svg" xmlns:xlink="http://www.w3.org/1999/xlink" xml:space="preserve" xmlns:serif="http://www.serif.com/" style="fill-rule:evenodd;clip-rule:evenodd;stroke-linejoin:round;stroke-miterlimit:2;">
    <g transform="matrix(1,0,0,1,233,61)">
        <g transform="matrix(1,0,0,1,-233,-61)">
            <g transform="matrix(2,0,0,2,0,0)">
                <path d="M87.3,47.176C90.62,47.176 93.67,46.039 95.763,43.836L95.763,46.697L101.176,46.697L101.176,14.241L95.763,14.241L95.763,25.413C93.67,23.21 90.66,22.113 87.346,22.113C80.843,22.113 75.608,27.036 75.608,34.601C75.608,41.947 80.889,47.176 87.3,47.176ZM88.263,42.213C83.986,42.213 81.021,39.179 81.021,34.601C81.021,30.163 84.032,27.169 88.263,27.169C92.845,27.169 95.763,30.077 95.763,34.734C95.763,39.398 92.581,42.213 88.263,42.213Z" style="fill:rgb(242,244,245);fill-rule:nonzero;"/>
            </g>
            <g transform="matrix(2,0,0,2,0,0)">
                <path d="M127.702,36.67C128.138,35.573 128.442,34.342 128.442,32.758C128.442,26.73 123.517,22.159 116.968,22.159C109.422,22.159 104.319,27.435 104.319,34.648C104.319,41.9 109.772,47.137 117.318,47.137C120.856,47.137 123.338,46.518 125.913,44.801L124.434,40.19C122.513,41.594 119.76,42.253 117.628,42.253C113.522,42.253 110.775,40.363 110.036,36.67L127.702,36.67ZM116.928,27.036C120.288,27.036 122.731,28.753 122.903,32.406L110.076,32.406C110.775,29.019 113.264,27.036 116.928,27.036Z" style="fill:rgb(242,244,245);fill-rule:nonzero;"/>
            </g>
            <g transform="matrix(2,0,0,2,0,0)">
                <path d="M139.704,47.137C145.329,47.137 150.042,44.934 150.128,39.572C150.128,35.746 148.082,33.37 140.707,31.787C136.601,30.955 135.512,30.383 135.512,29.059C135.598,27.482 137.083,27.129 139.486,27.129C142.629,27.129 145.678,27.788 147.949,29.106L148.775,23.916C146.2,22.864 143.15,22.113 139.922,22.113C134.726,22.113 130.145,24.315 130.019,29.505C130.019,33.417 132.152,35.613 139.136,36.804C143.322,37.549 144.675,38.168 144.675,39.791C144.721,41.774 142.404,42.166 139.922,42.166C136.951,42.166 133.637,41.328 130.409,39.705L129.405,44.801C132.369,46.345 135.862,47.137 139.704,47.137Z" style="fill:rgb(242,244,245);fill-rule:nonzero;"/>
            </g>
            <g transform="matrix(2,0,0,2,0,0)">
                <path d="M161.602,47.176C163.609,47.176 165.926,46.651 167.715,45.64L166.711,41.288C165.398,41.947 163.959,42.253 162.651,42.253C160.559,42.253 159.252,40.802 159.252,38.387L159.252,27.522L166.929,27.522L166.929,22.645L159.252,22.645L159.252,17.542L157.066,17.542L152.353,22.598L150.392,24.621L150.392,27.522L153.838,27.522L153.838,39.352C153.838,44.409 156.717,47.176 161.602,47.176Z" style="fill:rgb(242,244,245);fill-rule:nonzero;"/>
            </g>
            <g transform="matrix(2,0,0,2,0,0)">
                <path d="M176.132,20.003L176.132,14.681L170.507,14.681L170.507,20.003L176.132,20.003ZM176.046,46.697L176.046,22.645L170.639,22.645L170.639,46.697L176.046,46.697Z" style="fill:rgb(242,244,245);fill-rule:nonzero;"/>
            </g>
            <g transform="matrix(2,0,0,2,0,0)">
                <path d="M194.155,22.113C190.227,22.113 187.566,23.656 185.909,25.852L185.909,22.645L180.496,22.645L180.496,46.697L185.909,46.697L185.909,32.359C186.998,29.325 189.573,27.169 192.841,27.169C196.597,27.169 198.426,29.192 198.426,33.018L198.426,46.697L203.839,46.697L203.839,32.273C203.839,25.938 199.957,22.113 194.155,22.113Z" style="fill:rgb(242,244,245);fill-rule:nonzero;"/>
            </g>
            <g transform="matrix(2,0,0,2,0,0)">
                <path d="M219.545,47.176C227.137,47.176 232.59,41.86 232.59,34.601C232.59,27.389 227.137,22.113 219.545,22.113C212.046,22.113 206.546,27.389 206.546,34.648C206.546,41.9 211.999,47.176 219.545,47.176ZM219.591,42.253C215.181,42.253 211.999,39.219 211.999,34.601C211.999,30.03 215.181,27.083 219.545,27.083C223.955,27.083 227.098,30.03 227.098,34.648C227.098,39.219 223.955,42.253 219.591,42.253Z" style="fill:rgb(242,244,245);fill-rule:nonzero;"/>
            </g>
            <g transform="matrix(1,0,0,1,-600.006,-703.344)">
                <path d="M610.141,703.872L669.55,703.872C685.551,703.872 700.896,710.229 712.21,721.543C723.524,732.857 729.881,748.202 729.881,764.203L729.88,764.484L729.881,764.606C729.881,772.676 728.29,780.377 725.429,787.417C717.965,805.739 701.766,819.527 682.049,823.585C678.149,824.4 674.095,824.815 669.965,824.815L610.079,824.815C613.005,796.161 633.454,772.819 660.245,766.212C660.199,766.273 660.169,766.335 660.153,766.412L658.009,774.286C657.932,774.579 657.963,774.903 658.101,775.181C658.392,775.814 659.158,776.076 659.786,775.783L681.108,765.501C681.369,765.362 681.583,765.162 681.706,764.899C681.752,764.807 681.782,764.714 681.797,764.621C681.828,764.529 681.828,764.436 681.828,764.344C681.828,764.266 681.828,764.189 681.813,764.112C681.736,763.726 681.491,763.371 681.108,763.201L659.786,752.904C659.51,752.78 659.204,752.749 658.897,752.827C658.223,753.012 657.825,753.722 658.009,754.401L660.153,762.337C633.546,755.544 613.25,732.356 610.141,703.872Z" style="fill:rgb(204,183,249);"/>
            </g>
            <g transform="matrix(1,0,0,1,-600.006,-703.344)">
                <path d="M600.006,710.001C600.15,706.594 602.927,703.872 606.357,703.872L610.141,703.872C613.25,732.356 633.546,755.544 660.153,762.337L658.009,754.401C657.825,753.722 658.221,753.005 658.897,752.827C659.203,752.746 659.51,752.78 659.786,752.904L681.108,763.201C681.491,763.371 681.736,763.726 681.813,764.112C681.828,764.189 681.828,764.266 681.828,764.344C681.828,764.436 681.828,764.529 681.797,764.621C681.782,764.714 681.75,764.806 681.706,764.899C681.58,765.16 681.369,765.362 681.108,765.501L659.786,775.783C659.158,776.076 658.401,775.81 658.101,775.181C657.967,774.901 657.932,774.579 658.009,774.286L660.153,766.412C660.169,766.335 660.199,766.273 660.245,766.212C633.454,772.819 613.005,796.161 610.079,824.815L606.357,824.815C602.927,824.815 600.15,822.093 600.006,818.686L600.006,710.001Z" style="fill:rgb(242,244,245);"/>
            </g>
        </g>
    </g>
</svg>
